<?xml version="1.0" encoding="UTF-8" standalone="no"?>
<svg
   xmlns:dc="http://purl.org/dc/elements/1.1/"
   xmlns:cc="http://creativecommons.org/ns#"
   xmlns:rdf="http://www.w3.org/1999/02/22-rdf-syntax-ns#"
   xmlns:svg="http://www.w3.org/2000/svg"
   xmlns="http://www.w3.org/2000/svg"
   version="1.1"
   id="svg2"
   viewBox="0 0 4094 0"
   height="3072"
   width="4094">
  <defs
     id="defs4" />
  <metadata
     id="metadata7">
    <rdf:RDF>
      <cc:Work
         rdf:about="">
        <dc:format>image/svg+xml</dc:format>
        <dc:type
           rdf:resource="http://purl.org/dc/dcmitype/StillImage" />
        <dc:title></dc:title>
      </cc:Work>
    </rdf:RDF>
  </metadata>
  <g
     transform="translate(0,1919.6378)"
     id="layer1">
    <g
       transform="translate(-118.01202,707.48909)"
       id="text4684"
       style="font-style:normal;font-variant:normal;font-weight:bold;font-stretch:normal;font-size:999.07189941px;line-height:125%;font-family:'Marker Felt';-inkscape-font-specification:'Marker Felt, Bold';text-align:start;letter-spacing:0px;word-spacing:0px;writing-mode:lr-tb;text-anchor:start;fill:#000000;fill-opacity:1;stroke:#000000;stroke-width:1px;stroke-linecap:butt;stroke-linejoin:miter;stroke-opacity:1">
      <path
         style="fill:#000000;stroke:#000000;stroke-opacity:1"
         id="path4699"
         d="m 1340.5904,-1038.5731 -34.9675,50.95266 -13.987,-2.99721 -12.988,-4.99536 -12.9879,2.99721 -60.9434,199.81438 -103.9035,123.88492 -34.9675,7.99257 -88.91738,-25.97587 -84.92112,-28.97308 -89.91647,-128.88028 -28.97308,-218.79674 45.95731,-293.7271 131.87749,-157.8534 15.98515,-0.9991 121.8868,31.9703 103.9034,74.9304 28.9731,83.9221 10.9898,62.9415 7.9926,40.9619 -9.9907,30.9713 -20.9805,20.9805 -77.9276,-13.987 -77.9276,-30.9713 -14.9861,-46.9563 4.9953,-11.9889 4.9954,-13.987 -15.9852,-70.9341 -59.94427,113.8942 -23.97773,235.781 52.9508,217.79763 42.9601,-54.94896 32.9694,-117.89048 -60.9434,-30.97123 -38.96381,-25.97586 9.99072,-41.961 28.97309,-35.9666 43.9592,-8.9917 45.9573,-1.9981 54.9489,-16.9842 46.9564,-11.9889 10.9898,0.9991 72.9322,44.9582 z" />
      <path
         style="fill:#000000;stroke:#000000;stroke-opacity:1"
         id="path4701"
         d="m 1607.3426,-1468.174 -4.9954,18.9823 -4.9954,14.9861 -11.9888,61.9425 0,613.43013 5.9944,21.97958 5.9944,14.98608 -23.9777,68.93596 -69.935,-12.98794 -73.9313,-24.97679 -21.9796,-34.96752 3.9963,-8.99165 3.9963,-16.98422 0,-704.34573 -3.9963,-11.9888 -2.9972,-12.988 36.9656,-31.9703 45.9573,0 71.9332,10.9898 z" />
      <path
         style="fill:none;stroke:#000000;stroke-opacity:1"
         id="path4703"
         d="m 2311.8912,-738.85154 -3.9963,42.9601 -7.9925,26.97494 -16.9843,2.99721 -81.9239,-16.98422 -71.9331,-37.96473 -15.9852,-59.94432 -24.9768,-110.89698 -110.897,27.97402 -94.9118,36.96566 -39.9629,105.90162 -6.9935,25.97587 -16.9842,20.98051 -8.9916,1.99814 -80.9249,-24.9768 -57.9461,-32.96937 18.9823,-68.93596 36.9657,-97.90905 -20.9805,-41.96102 0.999,-10.98979 60.9434,-42.96009 128.8803,-440.5907 0.9991,-43.9592 5.9944,-33.9684 23.9777,-4.9954 133.8757,23.9778 103.9034,42.96 44.9583,332.691 z m -260.7577,-303.71786 -15.9852,-82.923 -14.9861,-138.871 -46.9564,135.8738 -30.9712,113.8942 z" />
      <path
         style="fill:none;stroke:#000000;stroke-opacity:1"
         id="path4705"
         d="m 2958.3219,-1468.174 -3.9963,20.9805 -8.9916,26.9749 0,659.38748 4.9953,36.96566 -11.9888,59.94432 -80.9249,7.99257 -82.9229,-18.98236 -66.9378,-39.96288 -2.9973,-42.96009 -129.8793,-324.6984 0,295.72531 6.9935,20.98051 8.9916,17.9833 4.9954,29.97215 -35.9666,39.96288 -98.9081,-19.98144 -67.9369,-30.97123 0,-40.96194 11.9889,-30.97123 0,-626.41811 -2.9972,-17.9833 -0.9991,-18.9823 38.9638,-45.9573 21.9796,-1.9982 79.9257,9.9907 73.9313,33.9685 72.9323,182.8301 85.9202,253.7643 0,-392.6353 -3.9963,-21.9795 -3.9963,-22.9787 1.9981,-10.9898 37.9648,-24.9768 49.9536,-4.9953 54.9489,10.9897 z" />
      <path
         style="fill:none;stroke:#000000;stroke-opacity:1"
         id="path4707"
         d="m 3515.9446,-1348.2854 -21.9796,-5.9944 -22.9787,-4.9954 -102.9044,27.974 0,525.51185 13.987,62.94153 -1.9981,37.96473 -18.9824,38.9638 -9.9907,0.99908 -91.9146,-12.98794 -77.9276,-28.97308 0.999,-47.95546 12.988,-37.96473 0,-494.54058 -70.9341,17.9833 -16.9842,8.9916 -18.9824,4.9954 -62.9415,-58.9452 -34.9676,-72.9323 46.9564,-34.9675 25.9759,-0.9991 24.9768,0 347.677,-88.9174 28.9731,-11.9888 28.9731,-4.9954 37.9647,21.9796 14.9861,44.9582 9.9907,67.9369 -5.9944,33.9684 z" />
    </g>
  </g>
</svg>
